<?xml version="1.0" encoding="UTF-8" standalone="no"?>
<svg
   xmlns:dc="http://purl.org/dc/elements/1.1/"
   xmlns:cc="http://creativecommons.org/ns#"
   xmlns:rdf="http://www.w3.org/1999/02/22-rdf-syntax-ns#"
   xmlns:svg="http://www.w3.org/2000/svg"
   xmlns="http://www.w3.org/2000/svg"
   xmlns:xlink="http://www.w3.org/1999/xlink"
   xmlns:sodipodi="http://sodipodi.sourceforge.net/DTD/sodipodi-0.dtd"
   xmlns:inkscape="http://www.inkscape.org/namespaces/inkscape"
   version="1.1"
   id="svg2"
   inkscape:version="0.48.2 r9819"
   width="100%"
   height="100%"
   sodipodi:docname="prototypen.svg">
  <metadata
     id="metadata143">
    <rdf:RDF>
      <cc:Work
         rdf:about="">
        <dc:format>image/svg+xml</dc:format>
        <dc:type
           rdf:resource="http://purl.org/dc/dcmitype/StillImage" />
        <dc:title></dc:title>
      </cc:Work>
    </rdf:RDF>
  </metadata>
  <sodipodi:namedview
     pagecolor="#ffffff"
     bordercolor="#666666"
     borderopacity="1"
     objecttolerance="10"
     gridtolerance="10"
     guidetolerance="10"
     inkscape:pageopacity="0"
     inkscape:pageshadow="2"
     inkscape:window-width="1633"
     inkscape:window-height="1006"
     id="namedview141"
     showgrid="false"
     inkscape:zoom="3.3282892"
     inkscape:cx="140.37558"
     inkscape:cy="714.40212"
     inkscape:window-x="0"
     inkscape:window-y="0"
     inkscape:window-maximized="1"
     inkscape:current-layer="svg2" />
  <defs
     id="defs4">
    <linearGradient
       id="a"
       x1="0"
       y1="20%"
       x2="100%"
       y2="80%">
      <stop
         stop-color="#cfd5c9"
         offset="0"
         id="stop7" />
      <stop
         stop-color="#f9e2c3"
         offset=".33851"
         id="stop9" />
      <stop
         stop-color="#bdd1cb"
         offset=".51592"
         id="stop11" />
      <stop
         stop-color="#dcd9c7"
         offset=".75"
         id="stop13" />
      <stop
         stop-color="#b1cdcd"
         offset="1"
         id="stop15" />
    </linearGradient>
    <linearGradient
       inkscape:collect="always"
       xlink:href="#a"
       id="linearGradient3150"
       x1="205.7362"
       y1="455.50096"
       x2="342.0449"
       y2="537.28618"
       gradientTransform="scale(1.0095456,0.99054465)"
       gradientUnits="userSpaceOnUse" />
    <linearGradient
       inkscape:collect="always"
       xlink:href="#a"
       id="linearGradient3152"
       x1="186.41067"
       y1="436.00664"
       x2="322.71937"
       y2="517.79186"
       gradientTransform="scale(1.0095456,0.99054465)"
       gradientUnits="userSpaceOnUse" />
    <linearGradient
       inkscape:collect="always"
       xlink:href="#a"
       id="linearGradient3154"
       x1="149.50298"
       y1="394.22156"
       x2="285.81168"
       y2="476.00678"
       gradientTransform="scale(1.0095456,0.99054465)"
       gradientUnits="userSpaceOnUse" />
  </defs>
  <g
     stroke="#e35a5a"
     stroke-dasharray="6, 1.5"
     stroke-width="1.5"
     fill="none"
     id="g17">
    <path
       d="m167.25 206.61 87.5 87.5"
       id="path19" />
    <path
       d="m18.25 357.61 87.5 87.5"
       id="path21" />
    <path
       d="m30.25 223.61 87.5 87.5"
       id="path23" />
  </g>
  <rect
     opacity=".6"
     ry="1.2942"
     width="160"
     stroke="#445088"
     stroke-miterlimit="0"
     y="31.862"
     x="362"
     height="155"
     fill="url(#a)"
     id="rect25" />
  <g
     stroke="#633296"
     stroke-miterlimit="0"
     fill="#9e6ecf"
     id="g27">
    <rect
       ry="1.2942"
       height="30"
       width="31.5"
       y="46.362"
       x="375"
       id="rect29" />
    <rect
       ry="1.2942"
       height="30"
       width="31.5"
       y="46.362"
       x="476.25"
       id="rect31" />
    <rect
       ry="1.2942"
       height="30"
       width="31.5"
       y="93.487"
       x="425.38"
       id="rect33" />
    <rect
       ry="1.2942"
       height="30"
       width="31.5"
       y="140.61"
       x="374.62"
       id="rect35" />
    <rect
       ry="1.2942"
       height="30"
       width="31.5"
       y="140.61"
       x="475.88"
       id="rect37" />
  </g>
  <rect
     opacity=".6"
     ry="1.2942"
     width="160"
     stroke="#445088"
     stroke-miterlimit="0"
     y="31.862"
     x="13"
     height="155"
     fill="url(#a)"
     id="rect39" />
  <g
     stroke="#c8c800"
     stroke-miterlimit="0"
     fill="#FF6"
     id="g41">
    <rect
       ry="1.2942"
       height="30"
       width="31.5"
       y="46.362"
       x="76.25"
       id="rect43" />
    <rect
       ry="1.2942"
       height="30"
       width="31.5"
       y="93.487"
       x="26.125"
       id="rect45" />
    <rect
       ry="1.2942"
       height="30"
       width="31.5"
       y="93.487"
       x="127.38"
       id="rect47" />
    <rect
       ry="1.2942"
       height="30"
       width="31.5"
       y="140.61"
       x="25.625"
       id="rect49" />
  </g>
  <g
     stroke-miterlimit="0"
     id="g51">
    <rect
       ry="1.2942"
       width="160"
       stroke="#445087"
       y="251.86"
       x="318"
       height="155"
       fill="url(#a)"
       id="rect53" />
    <rect
       ry="1.2942"
       height="30"
       width="31.5"
       stroke="#c66802"
       y="266.36"
       x="331"
       fill="#fea549"
       id="rect55" />
    <rect
       ry="1.2942"
       height="30"
       width="31.5"
       stroke="#c8c800"
       y="266.36"
       x="381.25"
       fill="#FF6"
       id="rect57" />
    <rect
       ry="1.2942"
       height="30"
       width="31.5"
       stroke="#633296"
       y="266.36"
       x="432.25"
       fill="#9e6ecf"
       id="rect59" />
    <rect
       ry="1.2942"
       height="30"
       width="31.5"
       stroke="#c8c800"
       y="313.49"
       x="331.12"
       fill="#FF6"
       id="rect61" />
    <rect
       ry="1.2942"
       height="30"
       width="31.5"
       stroke="#633296"
       y="313.49"
       x="381.38"
       fill="#9e6ecf"
       id="rect63" />
    <rect
       ry="1.2942"
       height="30"
       width="31.5"
       stroke="#c8c800"
       y="313.49"
       x="432.38"
       fill="#FF6"
       id="rect65" />
    <rect
       ry="1.2942"
       height="30"
       width="31.5"
       stroke="#c8c800"
       y="360.61"
       x="330.62"
       fill="#FF6"
       id="rect67" />
    <rect
       ry="1.2942"
       height="30"
       width="31.5"
       stroke="#c66802"
       y="360.61"
       x="380.88"
       fill="#fea549"
       id="rect69" />
    <rect
       ry="1.2942"
       height="30"
       width="31.5"
       stroke="#633296"
       y="360.61"
       x="431.88"
       fill="#9e6ecf"
       id="rect71" />
  </g>
  <g
     style="stroke-width:0.85984999;stroke-miterlimit:0"
     id="g75"
     transform="translate(-73,-107)">
    <rect
       style="opacity:0.5;fill:url(#linearGradient3150);stroke:#445087"
       id="rect77"
       height="134.16"
       x="208.13"
       y="424.62"
       width="136.75"
       ry="1.1202"
       transform="matrix(0.99018,-0.1398,-0.094147,0.99556,0,0)" />
    <g
       style="fill:#9e6ecf;stroke:#633296"
       id="g79">
      <rect
         id="rect81"
         x="219.24001"
         y="437.17001"
         width="26.923"
         height="25.966999"
         transform="matrix(0.99018,-0.1398,-0.094147,0.99556,0,0)"
         ry="1.1202" />
      <rect
         id="rect83"
         x="305.78"
         y="437.17001"
         width="26.923"
         height="25.966999"
         transform="matrix(0.99018,-0.1398,-0.094147,0.99556,0,0)"
         ry="1.1202" />
      <rect
         id="rect85"
         x="262.29999"
         y="477.95999"
         width="26.923"
         height="25.966999"
         transform="matrix(0.99018,-0.1398,-0.094147,0.99556,0,0)"
         ry="1.1202" />
      <rect
         id="rect87"
         x="218.92"
         y="518.75"
         width="26.923"
         height="25.966999"
         transform="matrix(0.99018,-0.1398,-0.094147,0.99556,0,0)"
         ry="1.1202" />
      <rect
         id="rect89"
         x="305.45999"
         y="518.75"
         width="26.923"
         height="25.966999"
         transform="matrix(0.99018,-0.1398,-0.094147,0.99556,0,0)"
         ry="1.1202" />
    </g>
  </g>
  <g
     style="stroke-width:0.85984999;stroke-miterlimit:0"
     id="g91"
     transform="translate(-71,-107)">
    <rect
       style="opacity:0.5;fill:url(#linearGradient3152);stroke:#445087"
       id="rect93"
       height="134.16"
       x="188.62"
       y="405.31"
       width="136.75"
       ry="1.1202"
       transform="matrix(0.99018,-0.1398,-0.094147,0.99556,0,0)" />
    <g
       style="fill:#fea549;stroke:#c66802"
       id="g95">
      <rect
         id="rect97"
         x="199.73"
         y="417.85999"
         width="26.923"
         height="25.966999"
         transform="matrix(0.99018,-0.1398,-0.094147,0.99556,0,0)"
         ry="1.1202" />
      <rect
         id="rect99"
         x="242.67999"
         y="417.85999"
         width="26.923"
         height="25.966999"
         transform="matrix(0.99018,-0.1398,-0.094147,0.99556,0,0)"
         ry="1.1202" />
      <rect
         id="rect101"
         x="286.38"
         y="458.64999"
         width="26.923"
         height="25.966999"
         transform="matrix(0.99018,-0.1398,-0.094147,0.99556,0,0)"
         ry="1.1202" />
      <rect
         id="rect103"
         x="242.36"
         y="499.44"
         width="26.923"
         height="25.966999"
         transform="matrix(0.99018,-0.1398,-0.094147,0.99556,0,0)"
         ry="1.1202" />
    </g>
  </g>
  <g
     style="stroke-width:0.85984999;stroke-miterlimit:0"
     id="g105"
     transform="translate(-57,-90)">
    <rect
       style="opacity:0.5;fill:url(#linearGradient3154);stroke:#445087"
       id="rect107"
       height="134.16"
       x="151.36"
       y="363.92001"
       width="136.75"
       ry="1.1202"
       transform="matrix(0.99018,-0.1398,-0.094147,0.99556,0,0)" />
    <g
       style="fill:#ffff66;stroke:#c8c800"
       id="g109">
      <rect
         id="rect111"
         x="205.42"
         y="376.47"
         width="26.923"
         height="25.966999"
         transform="matrix(0.99018,-0.1398,-0.094147,0.99556,0,0)"
         ry="1.1202" />
      <rect
         id="rect113"
         x="162.58"
         y="417.26001"
         width="26.923"
         height="25.966999"
         transform="matrix(0.99018,-0.1398,-0.094147,0.99556,0,0)"
         ry="1.1202" />
      <rect
         id="rect115"
         x="249.12"
         y="417.26001"
         width="26.923"
         height="25.966999"
         transform="matrix(0.99018,-0.1398,-0.094147,0.99556,0,0)"
         ry="1.1202" />
      <rect
         id="rect117"
         x="162.14999"
         y="458.04001"
         width="26.923"
         height="25.966999"
         transform="matrix(0.99018,-0.1398,-0.094147,0.99556,0,0)"
         ry="1.1202" />
    </g>
  </g>
  <rect
     opacity=".6"
     ry="1.2942"
     width="160"
     stroke="#445088"
     stroke-miterlimit="0"
     y="31.862"
     x="187"
     height="155"
     fill="url(#a)"
     id="rect119" />
  <g
     stroke="#c66802"
     stroke-miterlimit="0"
     fill="#fea549"
     id="g121">
    <rect
       ry="1.2942"
       height="30"
       width="31.5"
       y="46.362"
       x="200"
       id="rect123" />
    <rect
       ry="1.2942"
       height="30"
       width="31.5"
       y="46.362"
       x="250.25"
       id="rect125" />
    <rect
       ry="1.2942"
       height="30"
       width="31.5"
       y="93.487"
       x="301.38"
       id="rect127" />
    <rect
       ry="1.2942"
       height="30"
       width="31.5"
       y="140.61"
       x="249.88"
       id="rect129" />
  </g>
  <path
     d="m150 334.36 87.5 87.5"
     stroke="#e35a5a"
     stroke-dasharray="6, 1.5"
     stroke-width="1.5"
     fill="none"
     id="path131" />
  <g
     font-size="13px"
     font-family="Bitstream Vera Sans"
     fill="#000000"
     id="g133">
    <text
       y="22"
       x="90"
       id="text135">o1</text>
    <text
       y="22"
       x="260"
       id="text137">o2</text>
    <text
       y="21"
       x="390"
       id="text139">Object.prototype</text>
  </g>
</svg>
