<svg xmlns="http://www.w3.org/2000/svg" version="1.1">

<defs>
<linearGradient id="a" x1="0" y1="20%" x2="100%" y2="80%">
<stop stop-color="#cfd5c9" offset="0"/>
<stop stop-color="#f9e2c3" offset=".33851"/>
<stop stop-color="#bdd1cb" offset=".51592"/>
<stop stop-color="#dcd9c7" offset=".75"/>
<stop stop-color="#b1cdcd" offset="1"/>
</linearGradient>
</defs>

<g font-size="13px" font-family="Bitstream Vera Sans" fill="#000">
<text y="22" x="90">o1</text>
<text y="22" x="260">o2</text>
<text y="21" x="390">Object.prototype</text>
</g>

<rect opacity=".5" ry="1.2942" width="160" stroke="#445088" y="31.862" x="13" height="155" fill="url(#a)"/>
<g stroke="#c8c800" fill="#FF6">
<rect ry="1.2942" height="30" width="31.5" y="46.362" x="76.25"/>
<rect ry="1.2942" height="30" width="31.5" y="93.487" x="26.125"/>
<rect ry="1.2942" height="30" width="31.5" y="93.487" x="127.38"/>
<rect ry="1.2942" height="30" width="31.5" y="140.61" x="25.625"/>
</g>

<rect opacity=".5" ry="1.2942" width="160" stroke="#445088" y="31.862" x="187" height="155" fill="url(#a)"/>
<g stroke="#c66802" fill="#fea549">
<rect ry="1.2942" height="30" width="31.5" y="46.362" x="200"/>
<rect ry="1.2942" height="30" width="31.5" y="46.362" x="250.25"/>
<rect ry="1.2942" height="30" width="31.5" y="93.487" x="301.38"/>
<rect ry="1.2942" height="30" width="31.5" y="140.61" x="249.88"/>
</g>

<rect opacity=".5" ry="1.2942" width="160" stroke="#445088" y="31.862" x="362" height="155" fill="url(#a)"/>
<g stroke="#633296" fill="#9e6ecf">
<rect ry="1.2942" height="30" width="31.5" y="46.362" x="375"/>
<rect ry="1.2942" height="30" width="31.5" y="46.362" x="476.25"/>
<rect ry="1.2942" height="30" width="31.5" y="93.487" x="425.38"/>
<rect ry="1.2942" height="30" width="31.5" y="140.61" x="374.62"/>
<rect ry="1.2942" height="30" width="31.5" y="140.61" x="475.88"/>
</g>

<path d="m30.25 223.61 87.5 87.5" stroke="#e35a5a" stroke-dasharray="6, 1.5" stroke-width="1.5" fill="none"/>

<g transform="rotate(-1.2) skewX(-7) skewY(-7)">

<g transform="translate(-73 -107)">
<rect opacity=".5" ry="1.1202" width="136.75" stroke="#445087" y="424.62" x="208.13" height="134.16" fill="url(#a)"/>
<g stroke="#633296" fill="#9e6ecf">
<rect ry="1.1202" height="25.967" width="26.923" y="437.17" x="219.24"/>
<rect ry="1.1202" height="25.967" width="26.923" y="437.17" x="305.78"/>
<rect ry="1.1202" height="25.967" width="26.923" y="477.96" x="262.3"/>
<rect ry="1.1202" height="25.967" width="26.923" y="518.75" x="218.92"/>
<rect ry="1.1202" height="25.967" width="26.923" y="518.75" x="305.46"/>
</g>
</g>

<g transform="translate(-71,-107)">
<rect opacity=".5" ry="1.1202" width="136.75" stroke="#445087" y="405.31" x="188.62" height="134.16" fill="url(#a)"/>
<g stroke="#c66802" fill="#fea549">
<rect ry="1.1202" height="25.967" width="26.923" y="417.86" x="199.73"/>
<rect ry="1.1202" height="25.967" width="26.923" y="417.86" x="242.68"/>
<rect ry="1.1202" height="25.967" width="26.923" y="458.65" x="286.38"/>
<rect ry="1.1202" height="25.967" width="26.923" y="499.44" x="242.36"/>
</g>
</g>

<g transform="translate(-57,-90)">
<rect opacity=".5" ry="1.1202" width="136.75" stroke="#445087" y="363.92" x="151.36" height="134.16" fill="url(#a)"/>
<g stroke="#c8c800" fill="#FF6">
<rect ry="1.1202" height="25.967" width="26.923" y="376.47" x="205.42"/>
<rect ry="1.1202" height="25.967" width="26.923" y="417.26" x="162.58"/>
<rect ry="1.1202" height="25.967" width="26.923" y="417.26" x="249.12"/>
<rect ry="1.1202" height="25.967" width="26.923" y="458.04" x="162.15"/>
</g>
</g>

</g>

<g stroke="#e35a5a" stroke-dasharray="6, 1.5" stroke-width="1.5" fill="none">
<path d="m167.25 206.61 87.5 87.5"/>
<path d="m18.25 357.61 87.5 87.5"/>
<path d="m150 334.36 87.5 87.5"/>
</g>

<g>
<rect ry="1.2942" width="160" stroke="#445087" y="251.86" x="318" height="155" fill="url(#a)"/>
<rect ry="1.2942" height="30" width="31.5" stroke="#c66802" y="266.36" x="331" fill="#fea549"/>
<rect ry="1.2942" height="30" width="31.5" stroke="#c8c800" y="266.36" x="381.25" fill="#FF6"/>
<rect ry="1.2942" height="30" width="31.5" stroke="#633296" y="266.36" x="432.25" fill="#9e6ecf"/>
<rect ry="1.2942" height="30" width="31.5" stroke="#c8c800" y="313.49" x="331.12" fill="#FF6"/>
<rect ry="1.2942" height="30" width="31.5" stroke="#633296" y="313.49" x="381.38" fill="#9e6ecf"/>
<rect ry="1.2942" height="30" width="31.5" stroke="#c8c800" y="313.49" x="432.38" fill="#FF6"/>
<rect ry="1.2942" height="30" width="31.5" stroke="#c8c800" y="360.61" x="330.62" fill="#FF6"/>
<rect ry="1.2942" height="30" width="31.5" stroke="#c66802" y="360.61" x="380.88" fill="#fea549"/>
<rect ry="1.2942" height="30" width="31.5" stroke="#633296" y="360.61" x="431.88" fill="#9e6ecf"/>
</g>

</svg>
